<svg xmlns="http://www.w3.org/2000/svg" width="24" height="24" fill="none" viewBox="0 0 24 24">
    <path stroke="#fff" stroke-linecap="round" stroke-linejoin="round" stroke-width="1.5" d="M15 12a3 3 0 1 1-6 0 3 3 0 0 1 6 0Z"/>
    <path stroke="#fff" stroke-linecap="round" stroke-linejoin="round" stroke-width="1.5" d="M10.465 4a.506.506 0 0 0-.512.5v1.841c-.65.225-1.25.553-1.778.965L6.303 6.25a.518.518 0 0 0-.7.183L4.07 9.031a.494.494 0 0 0 .187.683l1.748.986a5.89 5.89 0 0 0-.077 2.19l-1.524.86a.494.494 0 0 0-.187.683l1.535 2.598c.141.24.454.321.699.183l1.401-.79a6.18 6.18 0 0 0 2.102 1.235V19.5c0 .276.23.5.512.5h3.07a.506.506 0 0 0 .512-.5v-1.841a6.168 6.168 0 0 0 2.102-1.236l1.401.791a.518.518 0 0 0 .7-.183l1.534-2.598a.494.494 0 0 0-.187-.683l-1.524-.86a5.916 5.916 0 0 0-.077-2.19l1.748-.986a.494.494 0 0 0 .187-.683l-1.535-2.598a.518.518 0 0 0-.699-.183l-1.872 1.056a6.173 6.173 0 0 0-1.778-.965V4.5c0-.276-.23-.5-.512-.5h-3.07Z"/>
</svg>